<svg width="425" height="513" viewBox="0 0 425 513" fill="none" xmlns="http://www.w3.org/2000/svg">
<path d="M214.358 9.3773C252.812 9.3773 287.942 16.4983 319.749 30.7403C352.031 44.5076 377.429 64.209 395.944 89.8446C414.933 115.005 424.428 143.727 424.428 176.009C424.428 206.392 416.12 233.689 399.504 257.9C382.889 282.112 360.101 301.101 331.143 314.868C302.659 328.161 270.851 334.807 235.721 334.807C219.58 334.807 203.677 333.62 188.01 331.247C172.819 328.873 160.239 326.025 150.269 322.701L148.845 465.121C148.845 478.889 143.86 490.282 133.891 499.302C124.396 507.847 111.578 512.12 95.4374 512.12C79.2965 512.12 66.2413 507.61 56.2719 498.59C46.7772 489.57 42.5046 477.464 43.4541 462.273C45.353 412.901 46.3025 357.594 46.3025 296.354C46.3025 238.436 45.1157 186.928 42.742 141.828L40.6057 143.252C35.8584 145.626 31.5858 146.813 27.7879 146.813C19.7174 146.813 13.0712 142.303 7.84909 133.283C2.62702 124.263 0.0159912 113.819 0.0159912 101.95C0.0159912 92.4557 2.86439 84.8599 8.56119 79.1631C14.258 72.9916 22.8032 66.3453 34.1968 59.2243L39.8936 55.6638V46.4065C39.8936 31.215 44.1662 19.8214 52.7114 12.2257C61.2566 4.15523 75.0239 0.119995 94.0132 0.119995C113.003 0.119995 126.058 2.01893 133.179 5.81681C140.774 9.13993 144.572 12.7004 144.572 16.4983V17.2104C167.834 11.9883 191.096 9.3773 214.358 9.3773ZM218.631 250.779C244.266 250.779 265.155 243.184 281.296 227.992C297.911 212.801 306.219 194.286 306.219 172.448C306.219 150.136 297.199 132.571 279.159 119.753C261.594 106.46 238.807 99.814 210.798 99.814C195.606 99.814 174.243 102.662 146.709 108.359C147.183 116.43 147.421 126.636 147.421 138.98C147.421 157.969 147.895 180.281 148.845 205.917C149.794 220.159 150.269 230.603 150.269 237.249C157.39 240.572 167.597 243.658 180.889 246.507C194.657 249.355 207.237 250.779 218.631 250.779Z" fill="#262FFF" fill-opacity="0.64"/>
</svg>
